<svg xmlns="http://www.w3.org/2000/svg" id="svg2" width="181.95" height="175.233"><defs id="defs6"><clipPath id="clipPath16"><path d="M0 595.28h841.89V0H0v595.28z" id="path18"/></clipPath></defs><g id="g10"><g id="g12"><g id="g14" clip-path="url(#clipPath16)" transform="matrix(.82406 0 0 -.82406 -255.908 332.89)"><g id="g20"><path d="M477.76 292.463c-4.266 0-7.672-3.474-7.672-7.672 0-4.19 3.406-7.604 7.673-7.604 4.193 0 7.603 3.415 7.603 7.605 0 4.2-3.41 7.673-7.602 7.673m0-23.634c-8.833 0-16.036 7.132-16.036 15.96 0 8.84 7.203 15.974 16.037 15.974 8.77 0 15.965-7.135 15.965-15.973 0-8.828-7.195-15.96-15.964-15.96" id="path22" fill="#8c3ea4"/></g><path d="M420.272 227.55h-8.31v28.706h8.31V227.55z" id="path24" fill="#b5dc20"/><path d="M432.313 227.55h-8.307v28.706h8.307V227.55z" id="path26" fill="#b5dc20"/><g id="g28"><path d="M458.77 353.692l8.174 8.18-5.93 5.863-8.114-8.175-.013.023-5.93-5.87.013-.02-.014-.014 10.538-10.507-8.1-8.103 5.87-5.93 14.06 14.058-10.554 10.494z" id="path30" fill="#fcca20"/></g><g id="g32"><path d="M365.85 284.93l3.902-6.758h-7.88l3.978 6.758zm-.003 15.834l-17.682-30.534h35.303l-17.62 30.534z" id="path34" fill="#66ccda"/></g><g id="g36"><path d="M402.628 358.792l-5.87 5.93-10.165-10.163-10.16 10.16-5.87-5.928 10.166-10.1-10.168-10.166 5.87-5.932 10.16 10.167 10.165-10.166 5.87 5.932-10.135 10.166 10.136 10.1z" id="path38" fill="#f2542d"/></g></g></g></g></svg>