<?xml version="1.0" encoding="UTF-8"?>
<svg width="189px" height="186px" viewBox="0 0 189 186" version="1.1" xmlns="http://www.w3.org/2000/svg" xmlns:xlink="http://www.w3.org/1999/xlink">
    <!-- Generator: Sketch 41.1 (35376) - http://www.bohemiancoding.com/sketch -->
    <title>logos</title>
    <desc>Created with Sketch.</desc>
    <defs>
        <radialGradient cx="49.969398%" cy="49.9951198%" fx="49.969398%" fy="49.9951198%" r="115.408943%" id="radialGradient-1">
            <stop stop-color="#FFCF4F" offset="0%"></stop>
            <stop stop-color="#F4C236" offset="100%"></stop>
        </radialGradient>
        <radialGradient cx="49.9754259%" cy="49.9956595%" fx="49.9754259%" fy="49.9956595%" r="128.838083%" id="radialGradient-2">
            <stop stop-color="#08A960" offset="0%"></stop>
            <stop stop-color="#07914B" offset="100%"></stop>
        </radialGradient>
        <radialGradient cx="49.984431%" cy="49.9971903%" fx="49.984431%" fy="49.9971903%" r="130.881758%" id="radialGradient-3">
            <stop stop-color="#567FC0" offset="0%"></stop>
            <stop stop-color="#557FC0" offset="100%"></stop>
        </radialGradient>
        <radialGradient cx="49.9796554%" cy="49.9945664%" fx="49.9796554%" fy="49.9945664%" r="123.138584%" id="radialGradient-4">
            <stop stop-color="#E14C40" offset="0%"></stop>
            <stop stop-color="#CD392D" offset="100%"></stop>
        </radialGradient>
        <radialGradient cx="49.969398%" cy="50.0044307%" fx="49.969398%" fy="50.0044307%" r="115.408943%" id="radialGradient-5">
            <stop stop-color="#CCCCCC" offset="0%"></stop>
            <stop stop-color="#C0C0C0" offset="100%"></stop>
        </radialGradient>
        <radialGradient cx="49.9754259%" cy="50.0020567%" fx="49.9754259%" fy="50.0020567%" r="128.838083%" id="radialGradient-6">
            <stop stop-color="#A0A0A0" offset="0%"></stop>
            <stop stop-color="#7B7B7B" offset="100%"></stop>
        </radialGradient>
        <radialGradient cx="49.9841303%" cy="50.0014218%" fx="49.9841303%" fy="50.0014218%" r="130.882545%" id="radialGradient-7">
            <stop stop-color="#848484" offset="0%"></stop>
            <stop stop-color="#838383" offset="100%"></stop>
        </radialGradient>
        <radialGradient cx="49.9796554%" cy="50.0000326%" fx="49.9796554%" fy="50.0000326%" r="123.138584%" id="radialGradient-8">
            <stop stop-color="#626262" offset="0%"></stop>
            <stop stop-color="#474747" offset="100%"></stop>
        </radialGradient>
        <radialGradient cx="49.9714866%" cy="50.0135187%" fx="49.9714866%" fy="50.0135187%" r="115.408943%" id="radialGradient-9">
            <stop stop-color="#FFCF4F" offset="0%"></stop>
            <stop stop-color="#F4C236" offset="100%"></stop>
        </radialGradient>
        <radialGradient cx="49.9761343%" cy="50.0083007%" fx="49.9761343%" fy="50.0083007%" r="128.840626%" id="radialGradient-10">
            <stop stop-color="#08A960" offset="0%"></stop>
            <stop stop-color="#07914B" offset="100%"></stop>
        </radialGradient>
        <radialGradient cx="49.9853055%" cy="50.0056532%" fx="49.9853055%" fy="50.0056532%" r="130.882545%" id="radialGradient-11">
            <stop stop-color="#567FC0" offset="0%"></stop>
            <stop stop-color="#557FC0" offset="100%"></stop>
        </radialGradient>
        <radialGradient cx="49.9810113%" cy="50.0053679%" fx="49.9810113%" fy="50.0053679%" r="123.138584%" id="radialGradient-12">
            <stop stop-color="#E14C40" offset="0%"></stop>
            <stop stop-color="#CD392D" offset="100%"></stop>
        </radialGradient>
    </defs>
    <g id="Page-1" stroke="none" stroke-width="1" fill="none" fill-rule="evenodd">
        <g id="logos">
            <g id="Group">
                <path d="M8.91,60 L15.701,60 C17.308,60 19.305,58.872 20.133,57.489 L25.853,47.97 C26.53,46.574 26.506,44.544 25.734,43.257 L22.356,37.665 L8.91,60 Z" id="Shape" fill="url(#radialGradient-1)"></path>
                <path d="M16.209,32.514 L1.108,57.763 C0.524,59.011 1.131,60 2.629,60 L8.91,60 L22.356,37.665 L16.21,27.492 C17.039,28.87 17.039,31.13 16.209,32.514" id="Shape" fill="url(#radialGradient-2)"></path>
                <path d="M2.629,0 C1.015,0 0.375,1.133 1.205,2.511 L25.734,43.256 C26.506,44.544 26.529,46.573 25.853,47.969 L31.816,38.044 L8.914,0 L2.629,0 Z" id="Shape" fill="url(#radialGradient-3)"></path>
                <path d="M8.914,0 L31.817,38.045 L35.138,32.515 C35.968,31.13 35.968,28.87 35.138,27.492 L20.133,2.511 C19.305,1.133 17.308,0 15.701,0 L8.914,0 Z" id="Shape" fill="url(#radialGradient-4)"></path>
                <text id="GDG-DevFest-Perm-201-Copy" font-family="Verdana-Bold, Verdana" font-size="20" font-weight="bold" letter-spacing="-0.458823562" fill="#4E4E4E">
                    <tspan x="48" y="25">GDG DevFest</tspan>
                    <tspan x="48" y="49">Perm 2016</tspan>
                </text>
            </g>
            <g id="Group" transform="translate(0.000000, 63.000000)">
                <path d="M8.91,60 L15.701,60 C17.308,60 19.305,58.872 20.133,57.489 L25.853,47.97 C26.53,46.574 26.506,44.544 25.734,43.257 L22.356,37.665 L8.91,60 Z" id="Shape" fill="url(#radialGradient-5)"></path>
                <path d="M16.209,32.514 L1.108,57.763 C0.524,59.011 1.131,60 2.629,60 L8.91,60 L22.356,37.665 L16.21,27.492 C17.039,28.87 17.039,31.13 16.209,32.514" id="Shape" fill="url(#radialGradient-6)"></path>
                <path d="M2.629,0 C1.016,0 0.375,1.133 1.205,2.511 L25.734,43.256 C26.506,44.544 26.529,46.573 25.853,47.969 L31.816,38.044 L8.914,0 L2.629,0 Z" id="Shape" fill="url(#radialGradient-7)"></path>
                <path d="M8.914,0 L31.817,38.045 L35.138,32.515 C35.968,31.13 35.968,28.87 35.138,27.492 L20.134,2.512 C19.305,1.133 17.308,0 15.701,0 L8.914,0 Z" id="Shape" fill="url(#radialGradient-8)"></path>
                <text id="GDG-DevFest-Perm-201" font-family="Verdana-Bold, Verdana" font-size="20" font-weight="bold" letter-spacing="-0.458823562" fill="#4E4E4E">
                    <tspan x="48" y="24">GDG DevFest</tspan>
                    <tspan x="48" y="48">Perm 2016</tspan>
                </text>
            </g>
            <g id="Group" transform="translate(1.000000, 126.000000)">
                <path d="M8.068,60 L14.859,60 C16.466,60 18.463,58.872 19.291,57.489 L25.011,47.97 C25.688,46.574 25.664,44.544 24.892,43.257 L21.514,37.665 L8.068,60 Z" id="Shape" fill="url(#radialGradient-9)"></path>
                <path d="M15.368,32.514 L0.266,57.763 C-0.317,59.011 0.289,60 1.787,60 L8.068,60 L21.514,37.665 L15.368,27.492 C16.197,28.87 16.197,31.13 15.368,32.514" id="Shape" fill="url(#radialGradient-10)"></path>
                <path d="M1.787,0 C0.174,0 -0.467,1.133 0.363,2.511 L24.892,43.256 C25.664,44.544 25.687,46.573 25.011,47.969 L30.974,38.044 L8.072,0 L1.787,0 Z" id="Shape" fill="url(#radialGradient-11)"></path>
                <path d="M8.072,0 L30.975,38.045 L34.296,32.515 C35.126,31.13 35.126,28.87 34.296,27.492 L19.292,2.511 C18.463,1.133 16.467,0 14.86,0 L8.072,0 Z" id="Shape" fill="url(#radialGradient-12)"></path>
                <text id="GDG-DevFest-Perm-201" font-family="Verdana-Bold, Verdana" font-size="20" font-weight="bold" letter-spacing="-0.458823562" fill="#E6E6E5">
                    <tspan x="47" y="25">GDG DevFest</tspan>
                    <tspan x="47" y="49">Perm 2016</tspan>
                </text>
            </g>
        </g>
    </g>
</svg>