<svg width="247" height="60" viewBox="0 0 247 60" xmlns="http://www.w3.org/2000/svg"><title>gdg-perm</title><defs><radialGradient cx="49.969%" cy="49.995%" fx="49.969%" fy="49.995%" r="115.409%" id="radialGradient-1"><stop stop-color="#FFCF4F" offset="0%"/><stop stop-color="#F4C236" offset="100%"/></radialGradient><radialGradient cx="49.975%" cy="49.996%" fx="49.975%" fy="49.996%" r="128.838%" id="radialGradient-2"><stop stop-color="#08A960" offset="0%"/><stop stop-color="#07914B" offset="100%"/></radialGradient><radialGradient cx="49.984%" cy="49.997%" fx="49.984%" fy="49.997%" r="130.882%" id="radialGradient-3"><stop stop-color="#567FC0" offset="0%"/><stop stop-color="#557FC0" offset="100%"/></radialGradient><radialGradient cx="49.98%" cy="49.995%" fx="49.98%" fy="49.995%" r="123.139%" id="radialGradient-4"><stop stop-color="#E14C40" offset="0%"/><stop stop-color="#CD392D" offset="100%"/></radialGradient></defs><g id="Page-1" fill="none" fill-rule="evenodd"><g id="gdg-perm"><text id="GDG-Perm" font-family="Verdana-Bold, Verdana" font-size="40" font-weight="bold" letter-spacing="-.918"><tspan x="42" y="41" fill="#4E4E4E">GDG</tspan> <tspan x="137.333" y="41" font-family="Verdana" font-weight="normal" letter-spacing="-1.02" fill="#E6E6E5"> </tspan> <tspan x="150.376" y="41" font-family="Verdana" font-weight="normal" letter-spacing="-1.02" fill="#4E4E4E">Perm</tspan></text><g id="symbol"><path d="M8.91 60h6.79c1.608 0 3.605-1.128 4.433-2.51l5.72-9.52c.677-1.396.653-3.426-.12-4.713l-3.377-5.592L8.91 60z" id="Shape" fill="url(#radialGradient-1)"/><path d="M16.21 32.514L1.107 57.764C.524 59.01 1.13 60 2.628 60H8.91l13.446-22.335-6.146-10.173c.83 1.378.83 3.638 0 5.022" id="Shape" fill="url(#radialGradient-2)"/><path d="M2.63 0C1.014 0 .374 1.133 1.204 2.51l24.53 40.746c.77 1.288.794 3.317.118 4.713l5.963-9.926L8.914 0H2.63z" id="Shape" fill="url(#radialGradient-3)"/><path d="M8.914 0l22.903 38.045 3.32-5.53c.83-1.385.83-3.645 0-5.023L20.134 2.512C19.305 1.13 17.308 0 15.7 0H8.915z" id="Shape" fill="url(#radialGradient-4)"/></g></g></g></svg>