<svg width="174" height="186" viewBox="0 0 174 186" xmlns="http://www.w3.org/2000/svg"><title>logos</title><defs><radialGradient cx="49.969%" cy="49.995%" fx="49.969%" fy="49.995%" r="115.409%" id="radialGradient-1"><stop stop-color="#FFCF4F" offset="0%"/><stop stop-color="#F4C236" offset="100%"/></radialGradient><radialGradient cx="49.975%" cy="49.996%" fx="49.975%" fy="49.996%" r="128.838%" id="radialGradient-2"><stop stop-color="#08A960" offset="0%"/><stop stop-color="#07914B" offset="100%"/></radialGradient><radialGradient cx="49.984%" cy="49.997%" fx="49.984%" fy="49.997%" r="130.882%" id="radialGradient-3"><stop stop-color="#567FC0" offset="0%"/><stop stop-color="#557FC0" offset="100%"/></radialGradient><radialGradient cx="49.98%" cy="49.995%" fx="49.98%" fy="49.995%" r="123.139%" id="radialGradient-4"><stop stop-color="#E14C40" offset="0%"/><stop stop-color="#CD392D" offset="100%"/></radialGradient><radialGradient cx="49.969%" cy="50.004%" fx="49.969%" fy="50.004%" r="115.409%" id="radialGradient-5"><stop stop-color="#CCC" offset="0%"/><stop stop-color="#C0C0C0" offset="100%"/></radialGradient><radialGradient cx="49.975%" cy="50.002%" fx="49.975%" fy="50.002%" r="128.838%" id="radialGradient-6"><stop stop-color="#A0A0A0" offset="0%"/><stop stop-color="#7B7B7B" offset="100%"/></radialGradient><radialGradient cx="49.984%" cy="50.001%" fx="49.984%" fy="50.001%" r="130.883%" id="radialGradient-7"><stop stop-color="#848484" offset="0%"/><stop stop-color="#838383" offset="100%"/></radialGradient><radialGradient cx="49.98%" fx="49.98%" fy="50%" r="123.139%" id="radialGradient-8"><stop stop-color="#626262" offset="0%"/><stop stop-color="#474747" offset="100%"/></radialGradient><radialGradient cx="49.971%" cy="50.014%" fx="49.971%" fy="50.014%" r="115.409%" id="radialGradient-9"><stop stop-color="#FFCF4F" offset="0%"/><stop stop-color="#F4C236" offset="100%"/></radialGradient><radialGradient cx="49.976%" cy="50.008%" fx="49.976%" fy="50.008%" r="128.841%" id="radialGradient-10"><stop stop-color="#08A960" offset="0%"/><stop stop-color="#07914B" offset="100%"/></radialGradient><radialGradient cx="49.985%" cy="50.006%" fx="49.985%" fy="50.006%" r="130.883%" id="radialGradient-11"><stop stop-color="#567FC0" offset="0%"/><stop stop-color="#557FC0" offset="100%"/></radialGradient><radialGradient cx="49.981%" cy="50.005%" fx="49.981%" fy="50.005%" r="123.139%" id="radialGradient-12"><stop stop-color="#E14C40" offset="0%"/><stop stop-color="#CD392D" offset="100%"/></radialGradient></defs><g id="Page-1" fill="none" fill-rule="evenodd"><g id="logos"><g id="Group"><path d="M8.91 60h6.79c1.608 0 3.605-1.128 4.433-2.51l5.72-9.52c.677-1.396.653-3.426-.12-4.713l-3.377-5.592L8.91 60z" id="Shape" fill="url(#radialGradient-1)"/><path d="M16.21 32.514L1.107 57.764C.524 59.01 1.13 60 2.628 60H8.91l13.446-22.335-6.146-10.173c.83 1.378.83 3.638 0 5.022" id="Shape" fill="url(#radialGradient-2)"/><path d="M2.63 0C1.014 0 .374 1.133 1.204 2.51l24.53 40.746c.77 1.288.794 3.317.118 4.713l5.963-9.926L8.914 0H2.63z" id="Shape" fill="url(#radialGradient-3)"/><path d="M8.914 0l22.903 38.045 3.32-5.53c.83-1.385.83-3.645 0-5.023L20.134 2.512C19.305 1.13 17.308 0 15.7 0H8.915z" id="Shape" fill="url(#radialGradient-4)"/><text id="GDG-DevFest-Perm-201-Copy" font-family="Verdana" font-size="20" letter-spacing="-.459" fill="#4E4E4E"><tspan x="45" y="25">GDG DevFest</tspan> <tspan x="45" y="49">Perm 2016</tspan></text></g><g id="Group"><path d="M8.91 60h6.79c1.608 0 3.605-1.128 4.433-2.51l5.72-9.52c.677-1.396.653-3.426-.12-4.713l-3.377-5.592L8.91 60z" id="Shape" fill="url(#radialGradient-5)" transform="translate(0 63)"/><path d="M16.21 32.514L1.107 57.764C.524 59.01 1.13 60 2.628 60H8.91l13.446-22.335-6.146-10.173c.83 1.378.83 3.638 0 5.022" id="Shape" fill="url(#radialGradient-6)" transform="translate(0 63)"/><path d="M2.63 0C1.015 0 .374 1.133 1.204 2.51l24.53 40.746c.77 1.288.794 3.317.118 4.713l5.963-9.926L8.914 0H2.63z" id="Shape" fill="url(#radialGradient-7)" transform="translate(0 63)"/><path d="M8.914 0l22.903 38.045 3.32-5.53c.83-1.385.83-3.645 0-5.023L20.135 2.512C19.304 1.132 17.308 0 15.7 0H8.915z" id="Shape" fill="url(#radialGradient-8)" transform="translate(0 63)"/><text id="GDG-DevFest-Perm-201" font-family="Verdana" font-size="20" letter-spacing="-.459" fill="#4E4E4E" transform="translate(0 63)"><tspan x="45" y="25">GDG DevFest</tspan> <tspan x="45" y="49">Perm 2016</tspan></text></g><g id="Group"><path d="M8.068 60h6.79c1.608 0 3.605-1.128 4.433-2.51l5.72-9.52c.678-1.396.654-3.426-.118-4.713l-3.378-5.592L8.068 60z" id="Shape" fill="url(#radialGradient-9)" transform="translate(1 126)"/><path d="M15.368 32.514L.266 57.764C-.317 59.01.29 60 1.786 60H8.07l13.446-22.335-6.146-10.173c.83 1.378.83 3.638 0 5.022" id="Shape" fill="url(#radialGradient-10)" transform="translate(1 126)"/><path d="M1.787 0C.174 0-.467 1.133.363 2.51l24.53 40.746c.77 1.288.794 3.317.118 4.713l5.964-9.926L8.072 0H1.787z" id="Shape" fill="url(#radialGradient-11)" transform="translate(1 126)"/><path d="M8.072 0l22.903 38.045 3.32-5.53c.83-1.385.83-3.645 0-5.023L19.293 2.512C18.462 1.13 16.467 0 14.86 0H8.072z" id="Shape" fill="url(#radialGradient-12)" transform="translate(1 126)"/><text id="GDG-DevFest-Perm-201" font-family="Verdana" font-size="20" letter-spacing="-.459" fill="#E6E6E5" transform="translate(1 126)"><tspan x="44" y="25">GDG DevFest</tspan> <tspan x="44" y="49">Perm 2016</tspan></text></g></g></g></svg>